HIERARCHY
ROOT hip
{
	OFFSET 0.000000 0.000000 0.000000 
	CHANNELS 6 Xposition Yposition Zposition Xrotation Zrotation Yrotation
	JOINT abdomen
	{
		OFFSET 0.000000 3.402643 0.000000 
		CHANNELS 3 Xrotation Zrotation Yrotation
		JOINT chest
		{
			OFFSET 0.000000 8.438565 -0.680529 
			CHANNELS 3 Xrotation Zrotation Yrotation
			JOINT neck
			{
				OFFSET 0.000000 10.207942 -0.272212 
				CHANNELS 3 Xrotation Zrotation Yrotation
				JOINT head
				{
					OFFSET 0.000000 3.130431 0.000000 
					CHANNELS 3 Xrotation Zrotation Yrotation
					End Site
					{
						OFFSET 0.000000 3.130435 0.000000 
					}
				}
			}
			JOINT lCollar
			{
				OFFSET 3.470700 6.669187 -0.816635 
				CHANNELS 3 Yrotation Zrotation Xrotation
				JOINT lShldr
				{
					OFFSET 3.198488 0.000000 0.000000 
					CHANNELS 3 Zrotation Yrotation Xrotation
					JOINT lForeArm
					{
						OFFSET 10.139888 0.000000 0.000000 
						CHANNELS 3 Yrotation Zrotation Xrotation
						JOINT lHand
						{
							OFFSET 8.370511 0.000000 0.000000 
							CHANNELS 3 Zrotation Yrotation Xrotation
							End Site
							{
								OFFSET 4.083176 0.000000 0.000000 
							}
						}
					}
				}
			}
			JOINT rCollar
			{
				OFFSET -3.470700 6.669187 -0.816635 
				CHANNELS 3 Yrotation Zrotation Xrotation
				JOINT rShldr
				{
					OFFSET -3.198488 0.000000 0.000000 
					CHANNELS 3 Zrotation Yrotation Xrotation
					JOINT rForeArm
					{
						OFFSET -10.139888 0.000000 0.000000 
						CHANNELS 3 Yrotation Zrotation Xrotation
						JOINT rHand
						{
							OFFSET -8.370511 0.000000 0.000000 
							CHANNELS 3 Zrotation Yrotation Xrotation
							End Site
							{
								OFFSET -4.083176 0.000000 0.000000 
							}
						}
					}
				}
			}
		}
	}
	JOINT lThigh
	{
		OFFSET 5.308129 -1.633274 1.361059 
		CHANNELS 3 Xrotation Zrotation Yrotation
		JOINT lShin
		{
			OFFSET -2.041588 -20.007561 0.000000 
			CHANNELS 3 Xrotation Zrotation Yrotation
			JOINT lFoot
			{
				OFFSET 0.000000 -19.190928 -1.224953 
				CHANNELS 3 Xrotation Yrotation Zrotation
				End Site
				{
					OFFSET 0.000000 -2.449906 4.627600 
				}
			}
		}
	}
	JOINT rThigh
	{
		OFFSET -5.308129 -1.633274 1.361059 
		CHANNELS 3 Xrotation Zrotation Yrotation
		JOINT rShin
		{
			OFFSET 2.041588 -20.007561 0.000000 
			CHANNELS 3 Xrotation Zrotation Yrotation
			JOINT rFoot
			{
				OFFSET 0.000000 -19.190928 -1.224953 
				CHANNELS 3 Xrotation Yrotation Zrotation
				End Site
				{
					OFFSET 0.000000 -2.449906 4.627600 
				}
			}
		}
	}
}
MOTION
Frames: 20
Frame Time: 0.016667
0.776875 46.486004 -0.420531 3.066406 -0.019503 0.018483 -17.314819 -1.929949 0.650340 27.943573 -2.260616 -0.222311 2.724693 0.448711 -8.494194 5.539520 5.093415 -4.213055 1.993405 -2.003458 -0.008156 -81.794579 -5.200163 5.559389 -50.928215 -0.478932 -1.271587 -0.048828 0.000000 44.433594 -2.003062 1.991579 -0.506922 86.116508 1.356674 7.111534 53.104713 0.097914 -0.585894 0.048828 0.000000 49.638668 -19.240679 5.163728 3.415308 39.369965 2.471952 2.831439 -25.866903 10.230639 5.988308 -16.052006 -1.679998 8.243811 39.357967 -2.609573 -2.761685 -34.703247 -12.614992 -9.796009 
0.891452 46.491505 -0.368050 3.310549 -0.058496 0.094263 -17.392984 -1.929127 0.574845 27.834322 -2.176502 -0.250622 1.396634 0.839594 -9.412983 5.091084 5.408394 -4.674519 1.993405 -2.003458 -0.008156 -81.839424 -4.480155 5.651821 -51.621834 -0.484881 -1.272819 -0.048828 0.000000 44.384766 -2.003062 1.991579 -0.506922 86.176956 0.658830 7.197798 53.407444 0.100638 -0.594244 0.048828 0.000000 49.589840 -19.502377 5.088367 3.439603 39.418537 2.455644 2.795799 -25.932550 10.205601 5.968832 -16.158382 -1.641011 8.653209 39.327538 -2.629214 -2.768896 -35.027618 -12.827199 -10.033111 
1.015814 46.497505 -0.305673 3.564455 -0.058480 0.103769 -17.442539 -1.993828 0.616498 27.824898 -2.193971 -0.249598 0.361372 0.888654 -10.365337 4.748854 5.547417 -5.134913 1.993405 -2.003458 -0.008156 -81.735962 -3.885946 5.852845 -52.266525 -0.490208 -1.287662 -0.048828 0.000000 44.218750 -2.003062 1.991579 -0.506922 86.385475 0.067827 7.158210 53.671101 0.097903 -0.594701 0.048828 0.000000 49.726559 -19.684994 4.960104 3.478279 39.332161 2.439049 2.811270 -25.982256 10.108718 5.989814 -16.244549 -1.699724 8.916132 39.112644 -2.609621 -2.746596 -35.077438 -13.007903 -10.208951 
1.149205 46.505886 -0.241738 3.798828 0.019488 0.020829 -17.443264 -2.059044 0.724865 27.893469 -2.201220 -0.207952 -0.175788 0.507810 -11.407808 4.601080 5.470702 -5.653370 1.993405 -2.003458 -0.008156 -81.613594 -3.418240 6.075167 -52.823460 -0.499135 -1.288341 -0.058594 0.000000 43.984375 -2.003062 1.991579 -0.506922 86.596031 -0.358565 7.089950 53.846951 0.103963 -0.589238 0.048828 0.000000 49.843746 -19.764063 4.745755 3.552472 39.256790 2.413428 2.842909 -26.110352 10.005601 5.936164 -16.462029 -1.845906 9.198200 39.091259 -2.635248 -2.745476 -35.121620 -13.169700 -10.382083 
1.286674 46.513138 -0.187265 4.023446 0.116899 -0.118711 -17.433495 -2.059154 0.763576 27.949869 -2.087883 -0.189785 -0.634769 0.175770 -12.267571 4.502688 5.432501 -6.066131 1.993405 -2.003458 -0.008156 -81.615372 -3.019545 6.170497 -53.272827 -0.502684 -1.294202 -0.058594 0.000000 43.896484 -2.003062 1.991579 -0.506922 86.649200 -0.629791 7.178157 53.925076 0.103159 -0.589379 0.048828 0.000000 49.804680 -19.881451 4.550747 3.684265 39.189339 2.393816 2.837383 -26.227249 9.961147 5.966412 -16.595228 -1.983130 9.641187 39.005268 -2.619473 -2.771245 -35.242699 -13.363871 -10.558332 
1.425283 46.519268 -0.140418 4.218775 0.194783 -0.259036 -17.462288 -2.012246 0.720690 27.906687 -1.864262 -0.186414 -1.201173 0.087871 -12.755750 4.356257 5.530950 -6.306976 1.993405 -2.003458 -0.008156 -81.756165 -2.544127 6.099425 -53.692974 -0.512618 -1.307807 -0.058594 0.000000 43.974609 -2.003062 1.991579 -0.506922 86.575615 -0.871503 7.442176 53.944607 0.102958 -0.589414 0.048828 0.000000 49.628902 -20.020657 4.391880 3.909683 39.219730 2.380493 2.842403 -26.367809 9.884227 5.978514 -16.794106 -2.011580 10.158509 39.001461 -2.652560 -2.733598 -35.388306 -13.559272 -10.777540 
1.569280 46.519516 -0.094363 4.375047 0.262904 -0.389998 -17.491291 -1.983979 0.664091 27.825165 -1.658334 -0.201452 -1.523438 0.039049 -12.989320 4.317515 5.599400 -6.413030 1.993405 -2.003458 -0.008156 -81.876198 -2.049195 6.019446 -54.171638 -0.515311 -1.314243 -0.048828 0.000000 44.062500 -2.003062 1.991579 -0.506922 86.493408 -1.083799 7.735754 53.925076 0.103159 -0.589379 0.048828 0.000000 49.433590 -20.099421 4.245695 4.210416 39.260590 2.360999 2.854419 -26.500500 9.777889 5.956070 -16.903675 -2.128773 10.650471 38.972118 -2.652564 -2.734104 -35.566250 -13.686927 -10.925343 
1.719879 46.508011 -0.049382 4.453213 0.360237 -0.479697 -17.481421 -1.974771 0.592462 27.764057 -1.486403 -0.225967 -1.718751 -0.048806 -13.104004 4.307992 5.638425 -6.459885 1.993405 -2.003458 -0.008156 -81.955276 -1.515182 5.968835 -54.777409 -0.522979 -1.316327 -0.048828 0.000000 44.130859 -2.003062 1.991579 -0.506922 86.494965 -1.257420 7.921647 53.866486 0.103762 -0.589273 0.048828 0.000000 49.326168 -20.184031 4.081993 4.475027 39.370949 2.335279 2.882328 -26.623465 9.676377 5.914178 -16.916412 -2.256467 11.061653 39.020508 -2.654848 -2.724371 -35.798901 -13.765456 -11.034228 
1.878193 46.486633 -0.000643 4.511845 0.428356 -0.513002 -17.500961 -1.974559 0.534541 27.674242 -1.340579 -0.244003 -1.757815 -0.097610 -13.112239 4.308209 5.667638 -6.467457 1.993405 -2.003458 -0.008156 -81.991447 -0.922658 5.996729 -55.373310 -0.528398 -1.332214 -0.048828 0.000000 44.228519 -2.003062 1.991579 -0.506922 86.569061 -1.489416 7.961607 53.788284 0.096686 -0.594900 0.048828 0.000000 49.345699 -20.239122 3.914529 4.728622 39.499081 2.321932 2.884892 -26.724001 9.541230 5.868217 -16.910765 -2.392933 11.396671 39.066948 -2.677972 -2.702219 -35.990227 -13.921865 -11.187169 
2.046975 46.459873 0.052901 4.541166 0.467279 -0.499918 -17.549919 -1.983339 0.490338 27.604742 -1.246224 -0.260995 -1.533207 -0.136670 -13.033453 4.396604 5.676715 -6.428735 1.993405 -2.003458 -0.008156 -82.036690 -0.417557 6.084108 -55.842403 -0.539122 -1.333606 -0.048828 0.000000 44.355469 -2.003062 1.991579 -0.506922 86.678413 -1.770184 7.894377 53.700394 0.097599 -0.594751 0.048828 0.000000 49.355461 -20.348558 3.788262 4.931537 39.726250 2.305918 2.913603 -26.811304 9.388062 5.797236 -16.876997 -2.530326 11.645679 39.097080 -2.677985 -2.721148 -36.111408 -14.082630 -11.352225 
2.231423 46.430111 0.112368 4.560669 0.418592 -0.523181 -17.540146 -1.983446 0.499766 27.614120 -1.211500 -0.252869 -1.035163 -0.205045 -12.906451 4.592485 5.626525 -6.364486 1.993405 -2.003458 -0.008156 -81.983452 -0.097058 6.347663 -56.252731 -0.543105 -1.340125 -0.048828 0.000000 44.375000 -2.003062 1.991579 -0.506922 86.858170 -2.013135 7.660759 53.632038 0.098308 -0.594634 0.048828 0.000000 49.267570 -20.421049 3.728179 5.173670 40.022461 2.276472 2.936318 -27.054577 9.241145 5.725377 -16.867594 -2.676418 11.640320 39.104610 -2.703751 -2.710298 -36.080948 -14.143703 -11.419447 
2.426262 46.397476 0.174071 4.521552 0.311527 -0.483124 -17.510733 -1.974453 0.544643 27.634045 -1.245890 -0.232335 -0.351565 -0.214840 -12.752589 4.856859 5.556276 -6.285815 1.993405 -2.003458 -0.008156 -81.845505 0.164839 6.826228 -56.672825 -0.546792 -1.346863 -0.048828 0.000000 44.375000 -2.003062 1.991579 -0.506922 87.084602 -2.334557 7.281254 53.602745 0.098612 -0.594584 0.048828 0.000000 49.189449 -20.493633 3.719448 5.410758 40.364681 2.282749 2.941034 -27.287184 8.977248 5.640079 -16.704210 -2.822774 11.584558 39.057598 -2.697616 -2.747875 -36.129093 -14.125847 -11.426763 
2.628491 46.360840 0.238886 4.433625 0.214201 -0.364215 -17.500860 -1.965246 0.639028 27.614510 -1.246112 -0.192848 0.341797 -0.078124 -12.627433 5.111869 5.544405 -6.232805 1.993405 -2.003458 -0.008156 -81.652733 0.348476 7.597812 -56.975681 -0.547854 -1.344410 -0.048828 0.000000 44.345703 -2.003062 1.991579 -0.506922 87.322296 -2.889803 6.785917 53.729694 0.097294 -0.594801 0.048828 0.000000 49.189449 -20.515434 3.700937 5.559505 40.741703 2.227537 2.991348 -27.522688 8.716245 5.497869 -16.501665 -2.988375 11.366129 39.053970 -2.713382 -2.685249 -36.103897 -14.050042 -11.385416 
2.841086 46.319328 0.301150 4.326188 0.146067 -0.223300 -17.520004 -1.927784 0.696305 27.555328 -1.194831 -0.154705 1.181646 0.175744 -12.408453 5.416283 5.570877 -6.132449 1.993405 -2.003458 -0.008156 -81.458694 0.492442 8.603867 -57.239563 -0.555156 -1.349844 -0.048828 0.000000 44.228519 -2.003062 1.991579 -0.506922 87.422974 -3.736399 6.399816 54.071568 0.107382 -0.597548 0.048828 0.000000 49.130856 -20.511868 3.601762 5.725765 41.094524 2.214331 2.988874 -27.840233 8.385784 5.383256 -16.344847 -3.310468 10.885134 39.121109 -2.750156 -2.715956 -35.799538 -13.869582 -11.165305 
3.068110 46.279064 0.361950 4.218756 0.097392 -0.090456 -17.558693 -1.890126 0.715138 27.456661 -1.100571 -0.132438 2.294943 0.243945 -12.021432 5.817883 5.499049 -5.954010 1.993405 -2.003458 -0.008156 -81.239456 0.798801 9.766708 -57.649906 -0.558952 -1.356806 -0.058594 0.000000 44.042969 -2.003062 1.991579 -0.506922 87.387558 -4.834126 6.291581 54.618412 0.101674 -0.598546 0.048828 0.000000 48.886715 -20.501747 3.494681 5.863751 41.468571 2.188179 3.010165 -28.097166 8.093394 5.219219 -16.339088 -3.798672 9.902927 39.366108 -2.763508 -2.745677 -35.091297 -13.537744 -10.692623 
3.315080 46.242550 0.428169 4.072267 0.038964 0.129734 -17.646240 -1.851982 0.696120 27.270508 -1.041655 -0.126847 3.779302 0.097444 -11.653703 6.345595 5.299550 -5.778513 1.993405 -2.003458 -0.008156 -80.972763 1.312842 11.106605 -58.255508 -0.558024 -1.365803 -0.058594 0.000000 43.769527 -2.003062 1.991579 -0.506922 87.198120 -6.220404 6.453211 55.409485 0.106984 -0.602388 0.048828 0.000000 48.378899 -20.511086 3.347759 5.968191 41.920181 2.184899 3.047567 -28.376072 7.740927 5.023287 -16.339012 -4.520854 8.383279 39.640686 -2.773344 -2.773733 -34.035034 -12.923721 -10.002228 
3.589020 46.212288 0.491393 3.886719 0.000000 0.419922 -17.724499 -1.860480 0.662552 27.075169 -1.043480 -0.133059 5.585938 0.000000 -11.308592 7.049620 5.107784 -5.609345 1.993405 -2.003458 -0.008156 -80.638573 1.858294 12.624060 -58.988518 -0.575685 -1.374466 -0.058594 0.000000 43.398438 -2.003062 1.991579 -0.506922 86.877296 -7.728325 6.848615 56.474083 0.122844 -0.609766 0.041609 -0.006577 47.666016 -20.463009 3.094231 5.888309 42.294155 2.158760 3.068240 -28.476629 7.426488 4.824926 -16.367746 -5.408505 6.563355 40.032837 -2.773269 -2.786817 -32.689678 -12.177657 -9.089097 
3.893945 46.192783 0.540573 3.720707 -0.077960 0.766401 -17.783411 -1.887768 0.615120 26.890526 -1.141008 -0.158729 7.490374 0.348563 -10.706066 7.833927 5.098708 -5.324139 1.993405 -2.003458 -0.008156 -80.205406 2.413169 14.300074 -59.975182 -0.578619 -1.391307 -0.051956 0.007163 42.822266 -2.003062 1.991579 -0.506922 86.462784 -9.364572 7.472864 57.890232 0.134663 -0.618778 0.041710 -0.006685 46.796875 -20.461849 2.752202 5.597029 42.638996 2.126314 3.087640 -28.527473 7.291043 4.711231 -16.508427 -6.365767 4.726376 40.637753 -2.789450 -2.763314 -31.044788 -11.387259 -8.199377 
4.226042 46.187904 0.574627 3.486337 -0.126718 1.173899 -17.735159 -1.944092 0.543458 26.784382 -1.264142 -0.198660 9.454342 0.915135 -9.759588 8.649073 5.194488 -4.874754 1.993405 -2.003458 -0.008156 -79.756645 2.984531 16.057564 -61.294308 -0.594779 -1.411179 -0.052069 0.007266 41.923828 -2.003062 1.991579 -0.506922 85.953796 -11.019385 8.288014 59.638405 0.142449 -0.629578 0.051588 -0.006803 45.839840 -20.415714 2.284467 5.133724 42.915146 2.100005 3.110327 -28.393423 7.411400 4.678885 -16.857782 -7.380270 3.040780 41.690216 -2.763644 -2.844082 -29.064493 -10.471166 -7.205656 
4.581860 46.193409 0.592810 3.203128 -0.078003 1.646012 -17.608852 -2.010621 0.452394 26.805342 -1.385952 -0.270498 11.947514 1.500006 -8.637570 9.010069 5.064022 -4.402884 1.993405 -2.003458 -0.008156 -79.397720 3.497161 17.768757 -62.877289 -0.612394 -1.430868 -0.052221 0.007400 40.732426 -2.003062 1.991579 -0.506922 85.348770 -12.634437 9.178588 61.640572 0.155426 -0.637441 0.044833 -0.013860 44.794922 -20.316826 1.620084 4.582548 43.200508 2.077322 3.124300 -28.224150 7.611746 4.711122 -17.248621 -8.639218 1.519441 43.092712 -2.750812 -2.893823 -26.665758 -9.291270 -6.103722 
